# xmcd CD database file
#
# Track frame offsets:
#	150
#	17763
#	37041
#	51729
#	70802
#	87016
#	103488
#	119407
#	136585
#	156498
#
# Disc length: 2315 seconds
#
# Revision: 0
# Processed by: cddbd v1.5.2PL0 Copyright (c) Steve Scherf et al.
# Submitted via: CDex 1.51
#
DISCID=8e09090a
DTITLE=Graham Rodger - The colours of Australia
DYEAR=2002
DGENRE=Country
TTITLE0=The Snowy Mountain riders
TTITLE1=Going back to the Alice
TTITLE2=A country way of doing things
TTITLE3=The lady and the Rodeo man
TTITLE4=The colours of Australia
TTITLE5=The old retired drover
TTITLE6=We're Australia's sons
TTITLE7=Crocodile hunters
TTITLE8=Waiting at the end of the line
TTITLE9=When my ship comes in
EXTD=YEAR: 2002
EXTT0=
EXTT1=
EXTT2=
EXTT3=
EXTT4=
EXTT5=
EXTT6=
EXTT7=
EXTT8=
EXTT9=
PLAYORDER=
